<?xml version="1.0" ?><!DOCTYPE svg  PUBLIC '-//W3C//DTD SVG 1.1//EN'  'http://www.w3.org/Graphics/SVG/1.1/DTD/svg11.dtd'><svg xmlns="http://www.w3.org/2000/svg" xmlns:xlink="http://www.w3.org/1999/xlink" version="1.1" id="Layer_1" width="512px" height="512px" viewBox="0 0 512 512" enable-background="new 0 0 512 512" xml:space="preserve"><g><path fill="#33A851" d="M418.629,418.642c-76.935,76.935-194.823,87.962-283.513,33.094l-93.252,18.4l18.4-93.252   C5.396,288.194,16.423,170.306,93.358,93.371c89.828-89.828,235.456-89.828,325.271,0   C508.457,183.186,508.457,328.814,418.629,418.642z"/><path fill="#F0F0F1" d="M384.401,360.417l-8.291,8.291c-28.176,28.176-73.86,28.176-102.036,0L143.292,237.926   c-28.176-28.176-28.176-73.86,0-102.036l8.291-8.291c7.244-7.244,18.988-7.244,26.232,0l45.325,45.325   c-6.885,9.801-11.317,20.134-13.029,29.785c-2.233,12.566,0.15,23.976,7.718,31.543l59.919,59.919   c7.568,7.568,18.977,9.951,31.543,7.718c9.65-1.713,19.984-6.144,29.785-13.029l45.325,45.325   C391.645,341.429,391.645,353.174,384.401,360.417z"/></g></svg>